<svg id="Layer_1" data-name="Layer 1" xmlns="http://www.w3.org/2000/svg" xmlns:xlink="http://www.w3.org/1999/xlink" viewBox="0 0 361.46 265.19" width="406" height="306" class="illustration styles_illustrationTablet__1DWOa"><defs><linearGradient id="linear-gradient" x1="221.86" y1="127.07" x2="188.03" y2="96.2" gradientUnits="userSpaceOnUse"><stop offset="0.01"></stop><stop offset="0.13" stop-opacity="0.69"></stop><stop offset="1" stop-opacity="0"></stop></linearGradient><linearGradient id="linear-gradient-2" x1="694.78" y1="1281.74" x2="670.48" y2="1259.56" gradientTransform="translate(562.93 -1300.23) rotate(41.87)" xlink:href="#linear-gradient"></linearGradient><linearGradient id="linear-gradient-3" x1="241.5" y1="255.64" x2="217.2" y2="233.47" gradientTransform="translate(-28.01 -105.51) rotate(2.78)" xlink:href="#linear-gradient"></linearGradient><linearGradient id="linear-gradient-4" x1="176.52" y1="329.26" x2="180.33" y2="239.82" xlink:href="#linear-gradient"></linearGradient><linearGradient id="linear-gradient-5" x1="314.83" y1="163.44" x2="355.2" y2="163.44" xlink:href="#linear-gradient"></linearGradient><linearGradient id="linear-gradient-6" x1="297.26" y1="153.76" x2="297.88" y2="193.97" xlink:href="#linear-gradient"></linearGradient><linearGradient id="linear-gradient-7" x1="252.44" y1="236" x2="290.03" y2="197.03" xlink:href="#linear-gradient"></linearGradient><linearGradient id="linear-gradient-8" x1="333.58" y1="171.49" x2="269.08" y2="196.08" gradientUnits="userSpaceOnUse"><stop offset="0.01" stop-color="#fff"></stop><stop offset="0.13" stop-color="#fff" stop-opacity="0.69"></stop><stop offset="1" stop-color="#fff" stop-opacity="0"></stop></linearGradient><linearGradient id="linear-gradient-9" x1="91.77" y1="139.01" x2="67.24" y2="248.12" xlink:href="#linear-gradient"></linearGradient><linearGradient id="linear-gradient-10" x1="164.23" y1="169.68" x2="88.11" y2="188.08" xlink:href="#linear-gradient-8"></linearGradient><linearGradient id="linear-gradient-11" x1="126.78" y1="122.33" x2="130.8" y2="122.33" xlink:href="#linear-gradient"></linearGradient><linearGradient id="linear-gradient-12" x1="237.02" y1="135.09" x2="238.05" y2="202.32" xlink:href="#linear-gradient"></linearGradient><linearGradient id="linear-gradient-13" x1="158.97" y1="245.69" x2="221.81" y2="180.52" xlink:href="#linear-gradient"></linearGradient><linearGradient id="linear-gradient-14" x1="294.61" y1="137.82" x2="186.78" y2="178.94" xlink:href="#linear-gradient-8"></linearGradient></defs><title>5</title><path d="M358.58,187.9c-1.32,7.5-2.65,15-4.28,22.52-2.77,12.82-6.4,25.39-12.26,37.09-11.53,23-36.25,42.58-61.18,49-16.41,4.2-33.5,4.76-50.43,5.3-34.87,1.1-69.74,2.27-104.61,3.31-13.25.4-21.76.3-33.57-5.08-34.69-15.77-67.19-32.56-80.2-71.13A123,123,0,0,1,8.6,216.56c-4.23-18.66-4.49-38.19-3.43-57.37,2.2-39.58,12.68-83.26,45.94-104.84,1.1-.72,2.22-1.4,3.35-2.05,21.5-12.41,48-13.72,72.86-11.18,26.16,2.68,52,9.17,78.26,9.34,31,.21,61.34-8.33,92.25-10.13,14-.81,28.81,0,40.51,7.65,11.12,7.27,17.81,19.73,21.81,32.4C371,114.91,364.85,152.23,358.58,187.9Z" transform="translate(-4.64 -40.04)" fill="#4F46E5" opacity="0.18" style="isolation: isolate;"></path><path d="M202.93,101.91a10,10,0,0,1-1.44-3.15,9.89,9.89,0,0,1,.15-3.25,51.85,51.85,0,0,0-.55-18c-.72-3.46-2.34-7.38-5.78-8.21A6.5,6.5,0,0,0,188.85,72a11.52,11.52,0,0,0-1.9,7,19.59,19.59,0,0,0,3.8,11.21c-1.84-3.76-3.83-7.66-7.24-10.09s-8.68-2.81-11.47.32-1.82,8.33,1,11.44,6.93,4.64,10.89,6a18.15,18.15,0,0,0-15,8.94,6.31,6.31,0,0,0-1,4.5c.56,2.31,3.13,3.56,5.49,3.8a12.6,12.6,0,0,0,12.21-6.73c-3.13,1.38-6.87,4-5.91,7.24a4.69,4.69,0,0,0,2.83,2.86c3.69,1.46,8-.88,10.07-4.28s2.36-7.53,2.5-11.49c1.13-1.2,3.2-.94,4.47.1a10,10,0,0,1,2.53,4.16c1.24,3.14,2.24,7.58,4.37,10C210.63,113.18,205,105.68,202.93,101.91Z" transform="translate(-4.64 -40.04)" fill="#4F46E5"></path><path d="M202.93,101.91a10,10,0,0,1-1.44-3.15,9.89,9.89,0,0,1,.15-3.25,51.85,51.85,0,0,0-.55-18c-.72-3.46-2.34-7.38-5.78-8.21A6.5,6.5,0,0,0,188.85,72a11.52,11.52,0,0,0-1.9,7,19.59,19.59,0,0,0,3.8,11.21c-1.84-3.76-3.83-7.66-7.24-10.09s-8.68-2.81-11.47.32-1.82,8.33,1,11.44,6.93,4.64,10.89,6a18.15,18.15,0,0,0-15,8.94,6.31,6.31,0,0,0-1,4.5c.56,2.31,3.13,3.56,5.49,3.8a12.6,12.6,0,0,0,12.21-6.73c-3.13,1.38-6.87,4-5.91,7.24a4.69,4.69,0,0,0,2.83,2.86c3.69,1.46,8-.88,10.07-4.28s2.36-7.53,2.5-11.49c1.13-1.2,3.2-.94,4.47.1a10,10,0,0,1,2.53,4.16c1.24,3.14,2.24,7.58,4.37,10C210.63,113.18,205,105.68,202.93,101.91Z" transform="translate(-4.64 -40.04)" fill="url(#linear-gradient)"></path><path d="M226.85,95.45a5.14,5.14,0,0,1,2.38-4,37.33,37.33,0,0,0,8.33-9.89c1.27-2.2,2.29-5.07.84-7.16a4.65,4.65,0,0,0-4.76-1.65,8.31,8.31,0,0,0-4.39,2.86,14,14,0,0,0-3.34,7.82c.82-2.89,1.62-5.94,1-8.87s-3.29-5.66-6.28-5.33-5,3.59-5,6.6,1.49,5.81,2.94,8.45a13,13,0,0,0-12.29-2.39,4.51,4.51,0,0,0-2.71,1.91c-.81,1.51,0,3.41,1.12,4.67a9,9,0,0,0,9.75,2.25c-2.33-.76-5.57-1.17-6.63,1a3.34,3.34,0,0,0,.15,2.89c1.27,2.55,4.71,3.37,7.43,2.54s4.87-2.9,6.85-5a2.44,2.44,0,0,1,2.34,2.2,7.09,7.09,0,0,1-.64,3.43c-.84,2.28-2.43,5.13-2.47,7.47C225.56,105.17,226.14,98.45,226.85,95.45Z" transform="translate(-4.64 -40.04)" fill="#4F46E5"></path><path d="M226.85,95.45a5.14,5.14,0,0,1,2.38-4,37.33,37.33,0,0,0,8.33-9.89c1.27-2.2,2.29-5.07.84-7.16a4.65,4.65,0,0,0-4.76-1.65,8.31,8.31,0,0,0-4.39,2.86,14,14,0,0,0-3.34,7.82c.82-2.89,1.62-5.94,1-8.87s-3.29-5.66-6.28-5.33-5,3.59-5,6.6,1.49,5.81,2.94,8.45a13,13,0,0,0-12.29-2.39,4.51,4.51,0,0,0-2.71,1.91c-.81,1.51,0,3.41,1.12,4.67a9,9,0,0,0,9.75,2.25c-2.33-.76-5.57-1.17-6.63,1a3.34,3.34,0,0,0,.15,2.89c1.27,2.55,4.71,3.37,7.43,2.54s4.87-2.9,6.85-5a2.44,2.44,0,0,1,2.34,2.2,7.09,7.09,0,0,1-.64,3.43c-.84,2.28-2.43,5.13-2.47,7.47C225.56,105.17,226.14,98.45,226.85,95.45Z" transform="translate(-4.64 -40.04)" fill="url(#linear-gradient-2)"></path><path d="M188.1,142.84a7.17,7.17,0,0,1-.92-2.31,7.08,7.08,0,0,1,.22-2.33,37.19,37.19,0,0,0,.23-12.93c-.4-2.51-1.42-5.38-3.86-6.09A4.64,4.64,0,0,0,179,120.9a8.31,8.31,0,0,0-1.61,5,14.06,14.06,0,0,0,2.34,8.18c-1.19-2.77-2.49-5.64-4.85-7.5s-6.12-2.31-8.23-.17-1.6,5.92.31,8.25,4.81,3.57,7.61,4.7a13,13,0,0,0-11.05,5.9,4.55,4.55,0,0,0-.9,3.19c.32,1.67,2.12,2.66,3.81,2.91a9.05,9.05,0,0,0,9-4.39c-2.3.88-5.07,2.6-4.5,5a3.37,3.37,0,0,0,1.94,2.15c2.59,1.18,5.78-.35,7.37-2.71s1.95-5.32,2.19-8.16a2.43,2.43,0,0,1,3.2.23,7,7,0,0,1,1.67,3.07c.79,2.29,1.35,5.51,2.79,7.35C193.23,151.19,189.44,145.61,188.1,142.84Z" transform="translate(-4.64 -40.04)" fill="#4F46E5"></path><path d="M188.1,142.84a7.17,7.17,0,0,1-.92-2.31,7.08,7.08,0,0,1,.22-2.33,37.19,37.19,0,0,0,.23-12.93c-.4-2.51-1.42-5.38-3.86-6.09A4.64,4.64,0,0,0,179,120.9a8.31,8.31,0,0,0-1.61,5,14.06,14.06,0,0,0,2.34,8.18c-1.19-2.77-2.49-5.64-4.85-7.5s-6.12-2.31-8.23-.17-1.6,5.92.31,8.25,4.81,3.57,7.61,4.7a13,13,0,0,0-11.05,5.9,4.55,4.55,0,0,0-.9,3.19c.32,1.67,2.12,2.66,3.81,2.91a9.05,9.05,0,0,0,9-4.39c-2.3.88-5.07,2.6-4.5,5a3.37,3.37,0,0,0,1.94,2.15c2.59,1.18,5.78-.35,7.37-2.71s1.95-5.32,2.19-8.16a2.43,2.43,0,0,1,3.2.23,7,7,0,0,1,1.67,3.07c.79,2.29,1.35,5.51,2.79,7.35C193.23,151.19,189.44,145.61,188.1,142.84Z" transform="translate(-4.64 -40.04)" fill="url(#linear-gradient-3)"></path><path d="M354.3,210.42c-2.77,12.82-6.4,25.39-12.26,37.09-11.53,23-36.25,42.58-61.18,49-16.41,4.2-33.5,4.76-50.43,5.3-34.87,1.1-69.74,2.27-104.61,3.31-13.25.4-21.76.3-33.57-5.08-34.69-15.77-67.19-32.56-80.2-71.13A123,123,0,0,1,8.6,216.56c16.35-7.55,57,1.83,72.19,2.34,59.41,2,118.86,1.77,178.3,1.53C291.13,220.3,323.8,220.08,354.3,210.42Z" transform="translate(-4.64 -40.04)" fill="#4F46E5"></path><path d="M354.3,210.42c-2.77,12.82-6.4,25.39-12.26,37.09-11.53,23-36.25,42.58-61.18,49-16.41,4.2-33.5,4.76-50.43,5.3-34.87,1.1-69.74,2.27-104.61,3.31-13.25.4-21.76.3-33.57-5.08-34.69-15.77-67.19-32.56-80.2-71.13A123,123,0,0,1,8.6,216.56c16.35-7.55,57,1.83,72.19,2.34,59.41,2,118.86,1.77,178.3,1.53C291.13,220.3,323.8,220.08,354.3,210.42Z" transform="translate(-4.64 -40.04)" fill="url(#linear-gradient-4)"></path><path d="M347.25,104.39c-14,16.64-28.17,36.15-26.13,57.79A95.49,95.49,0,0,1,335.24,132l-9.62,37.2c7.41-13.75,15.63-28.33,29.58-35.35a68.91,68.91,0,0,0-26.09,43.6,42,42,0,0,1,22.47-18.16l-19.3,24.25a62.06,62.06,0,0,1,17.91-11.22L334,192l17.68-5.12a106.28,106.28,0,0,0-14.05,13.93,48.9,48.9,0,0,1,13.31-4.09l-9.2,14.13a22.69,22.69,0,0,1,9.72-6.16c1.05,3.1-.69,6.59-3.29,8.58s-5.88,2.82-9.06,3.59L315.8,222.5a218.19,218.19,0,0,0,.53-37.91c-.78-10.56-2.62-19.87-.53-30.31,2-10.22,5.18-19.75,10.82-28.6S340.8,112.06,347.25,104.39Z" transform="translate(-4.64 -40.04)" fill="#4F46E5"></path><path d="M347.25,104.39c-14,16.64-28.17,36.15-26.13,57.79A95.49,95.49,0,0,1,335.24,132l-9.62,37.2c7.41-13.75,15.63-28.33,29.58-35.35a68.91,68.91,0,0,0-26.09,43.6,42,42,0,0,1,22.47-18.16l-19.3,24.25a62.06,62.06,0,0,1,17.91-11.22L334,192l17.68-5.12a106.28,106.28,0,0,0-14.05,13.93,48.9,48.9,0,0,1,13.31-4.09l-9.2,14.13a22.69,22.69,0,0,1,9.72-6.16c1.05,3.1-.69,6.59-3.29,8.58s-5.88,2.82-9.06,3.59L315.8,222.5a218.19,218.19,0,0,0,.53-37.91c-.78-10.56-2.62-19.87-.53-30.31,2-10.22,5.18-19.75,10.82-28.6S340.8,112.06,347.25,104.39Z" transform="translate(-4.64 -40.04)" fill="url(#linear-gradient-5)"></path><ellipse cx="297.77" cy="186.67" rx="34.95" ry="3.71" fill="url(#linear-gradient-6)"></ellipse><path d="M326.71,197.55v.17a40.6,40.6,0,0,1-.5,6.49,30.39,30.39,0,0,1-3.71,10.64c-.09.17-.19.33-.29.49a25.9,25.9,0,0,1-3.79,4.84c-5.95,6-14.54,8.9-23.78,8.9-8.35,0-15.69-2.35-21-7.24a24.77,24.77,0,0,1-3.75-4.32A29,29,0,0,1,265.7,208a42.61,42.61,0,0,1-1.16-10.25c0-.47,0-.93,0-1.4,0-1.24.11-2.51.23-3.79a67.79,67.79,0,0,1,1.28-8.13c2.86-13.14,9.48-26.58,18-33.41,3.58-2.89,7.5-4.6,11.59-4.6C312.75,146.39,326.64,176.17,326.71,197.55Z" transform="translate(-4.64 -40.04)" fill="#4F46E5"></path><path d="M326.71,197.55v.16a40.41,40.41,0,0,1-.5,6.49c-.11.64-.23,1.27-.36,1.88a29.43,29.43,0,0,1-1.15,4,28.61,28.61,0,0,1-2.2,4.74c-.09.17-.19.33-.29.49l-.39.63a26.69,26.69,0,0,1-2.15,2.86c-.4.46-.82.92-1.25,1.35a27.51,27.51,0,0,1-6,4.57,32.21,32.21,0,0,1-8.5,3.29,40.22,40.22,0,0,1-9.27,1c-.59,0-1.18,0-1.76,0a40.15,40.15,0,0,1-4.62-.46,27.9,27.9,0,0,1-14.66-6.75,24.77,24.77,0,0,1-3.75-4.32A29,29,0,0,1,265.7,208a42.78,42.78,0,0,1-1.16-10.27c0-.46,0-.92,0-1.39,0-1.24.12-2.51.24-3.79a68.11,68.11,0,0,1,1.28-8.13A77.89,77.89,0,0,1,271.64,168c3.27-7,7.53-13.05,12.39-17,.16-.13.31-.25.48-.37a19.05,19.05,0,0,1,9.41-4.13,15.17,15.17,0,0,1,7.26.94,19.59,19.59,0,0,1,3.43,1.71,25.93,25.93,0,0,1,3.78,2.84,33.32,33.32,0,0,1,3.2,3.29,45.32,45.32,0,0,1,3.71,4.93c.67,1,1.32,2.09,1.95,3.2.94,1.65,1.83,3.37,2.65,5.16a76.73,76.73,0,0,1,6.42,22.66h0c.07.6.13,1.21.18,1.81C326.63,194.57,326.7,196.08,326.71,197.55Z" transform="translate(-4.64 -40.04)" fill="url(#linear-gradient-7)"></path><path d="M326.71,197.71c0,7.13-1.66,13-4.5,17.63-5.65,4.16-12.9,6.17-20.61,6.17-17.17,0-30.11-10-30.11-31.38,0-12.73,4.93-28.47,12.53-39.14,3.59-2.89,7.5-4.6,11.6-4.6C312.79,146.39,326.71,176.32,326.71,197.71Z" transform="translate(-4.64 -40.04)" fill="#4F46E5"></path><path d="M326.71,197.71c0,7.13-1.66,13-4.5,17.63-5.65,4.16-12.9,6.17-20.61,6.17-17.17,0-30.11-10-30.11-31.38,0-12.73,4.93-28.47,12.53-39.14,3.59-2.89,7.5-4.6,11.6-4.6C312.79,146.39,326.71,176.32,326.71,197.71Z" transform="translate(-4.64 -40.04)" fill="url(#linear-gradient-8)"></path><circle cx="302" cy="133.46" r="8.5" fill="#fff" opacity="0.54"></circle><circle cx="302.96" cy="159.94" r="8.5" fill="#fff" opacity="0.54"></circle><circle cx="290.98" cy="177.26" r="8.5" fill="#fff" opacity="0.54"></circle><circle cx="285.33" cy="119.31" r="5.65" fill="#fff" opacity="0.54"></circle><circle cx="301.03" cy="115.5" r="5.65" fill="#fff" opacity="0.54"></circle><circle cx="274.66" cy="148.65" r="5.65" fill="#fff" opacity="0.54"></circle><circle cx="287.07" cy="139.09" r="3.91" fill="#fff" opacity="0.54"></circle><circle cx="315.37" cy="147.69" r="3.91" fill="#fff" opacity="0.54"></circle><circle cx="285.33" cy="162.35" r="3.91" fill="#fff" opacity="0.54"></circle><circle cx="270.31" cy="173.36" r="3.91" fill="#fff" opacity="0.54"></circle><path d="M74.91,220.17l3.78,3.07q-27,1.95-53.69,6.3a2.38,2.38,0,0,0-1.26.46c-1,.87,0,2.42.9,3.31a89,89,0,0,0,35,20.48l-3.53-9.41,30.26.22c5.5,0,11.53-.11,15.67-3.73a11.65,11.65,0,0,1-4.41-3.46,16.58,16.58,0,0,1,10.55-6.83c-1.54-2.47,1.56-5.4,4.42-5.93s6.2-.21,8.28-2.25C105.55,220.87,90.23,222.16,74.91,220.17Z" transform="translate(-4.64 -40.04)" fill="url(#linear-gradient-9)"></path><path d="M120.27,221.79a9.59,9.59,0,0,0-5.71,1.27l4.84.72a8.33,8.33,0,0,0,1.57.14,15.46,15.46,0,0,0,1.66-.25c3.37-.55,6.79.39,10.07,1.32-.37-1.26-1.75-1.89-3-2.29a30.53,30.53,0,0,0-6.36-1.28,67,67,0,0,1,9.71.64c-3.32-2.16-7.49-2.38-11.45-2.53a24.4,24.4,0,0,1-1.17-8.35c0-.18-1.13-.23-1.29-.2-.76.16-.65.13-.73.74-.11.84.71,2.49.9,3.34A42.31,42.31,0,0,1,120.27,221.79Z" transform="translate(-4.64 -40.04)" fill="#4F46E5"></path><path d="M141.6,164.33l11.26,2.06L143,170.67S140.57,167.42,141.6,164.33Z" transform="translate(-4.64 -40.04)" fill="#4F46E5"></path><path d="M129.66,151.69c-2.66-.55-5.41-.09-8.12,0s-5.64-.22-7.68-2a5.09,5.09,0,0,0,1.35,3.62l-3.53.09a14.7,14.7,0,0,0,2.8,4.1,29.86,29.86,0,0,0-6.14,9.53,13.17,13.17,0,0,0-7.14,1.89c-4.42,2.69-7,7.87-11.74,10-3.12,1.44-6.7,1.33-10.13,1.19a5.12,5.12,0,0,0,2.78,3.42l-2.82,1.08a3.67,3.67,0,0,0,3.07,1.91l-1.61.82A199.89,199.89,0,0,0,103,203.18a1.66,1.66,0,0,1,.69.62,2,2,0,0,1,.09,1,6.9,6.9,0,0,0,4.26,6.61,2.49,2.49,0,0,0-.93,2.08,4.34,4.34,0,0,1,1.76-.9,1.52,1.52,0,0,1,1.68.77,1.25,1.25,0,0,1,2-.61l1.37-5.34a7.91,7.91,0,0,0,4.14,3.19l.16,2.07a7,7,0,0,1,4.7-.84l-1.19-2.22a5.53,5.53,0,0,0,2-3,3.18,3.18,0,0,1,.57-1.49,2.67,2.67,0,0,1,1-.58c4.56-1.93,7.87-6.18,9.45-10.87a31.93,31.93,0,0,0,.85-14.68,10.23,10.23,0,0,0,9-7.1c1.46-4.9-1.19-8-4.14-11.39C137.21,156.82,134.87,152.76,129.66,151.69Z" transform="translate(-4.64 -40.04)" fill="#4F46E5"></path><path d="M129.66,151.69c-2.66-.55-5.41-.09-8.12,0s-5.64-.22-7.68-2a5.09,5.09,0,0,0,1.35,3.62l-3.53.09a14.7,14.7,0,0,0,2.8,4.1,29.86,29.86,0,0,0-6.14,9.53,13.17,13.17,0,0,0-7.14,1.89c-4.42,2.69-7,7.87-11.74,10-3.12,1.44-6.7,1.33-10.13,1.19a5.12,5.12,0,0,0,2.78,3.42l-2.82,1.08a3.67,3.67,0,0,0,3.07,1.91l-1.61.82A199.89,199.89,0,0,0,103,203.18a1.66,1.66,0,0,1,.69.62,2,2,0,0,1,.09,1,6.9,6.9,0,0,0,4.26,6.61,2.49,2.49,0,0,0-.93,2.08,4.34,4.34,0,0,1,1.76-.9,1.52,1.52,0,0,1,1.68.77,1.25,1.25,0,0,1,2-.61l1.37-5.34a7.91,7.91,0,0,0,4.14,3.19l.16,2.07a7,7,0,0,1,4.7-.84l-1.19-2.22a5.53,5.53,0,0,0,2-3,3.18,3.18,0,0,1,.57-1.49,2.67,2.67,0,0,1,1-.58c4.56-1.93,7.87-6.18,9.45-10.87a31.93,31.93,0,0,0,.85-14.68,10.23,10.23,0,0,0,9-7.1c1.46-4.9-1.19-8-4.14-11.39C137.21,156.82,134.87,152.76,129.66,151.69Z" transform="translate(-4.64 -40.04)" fill="url(#linear-gradient-10)"></path><path d="M125.34,187.57c-3.47,5.59-10.69,7.71-17.28,7.59a28,28,0,0,1-11.43-2.47,9,9,0,0,0,5.87,4.2l-3.41.08a24.82,24.82,0,0,0,16.75,1.08l-1.6,1.83c3.46-.57,7.21-1.29,9.5-3.94a11.29,11.29,0,0,0,2.34-6.95c.07-1.55-.8-4.81.66-5.68A8.4,8.4,0,0,1,125.34,187.57Z" transform="translate(-4.64 -40.04)" fill="#4F46E5"></path><path d="M111,222.74a9.54,9.54,0,0,0-5.72,1.28l4.84.71a8.44,8.44,0,0,0,1.58.14,11.67,11.67,0,0,0,1.66-.25c3.37-.55,6.78.39,10.07,1.32-.38-1.26-1.76-1.89-3-2.29a30.79,30.79,0,0,0-6.36-1.28,67.2,67.2,0,0,1,9.71.64c-3.32-2.16-7.5-2.38-11.46-2.53a24.15,24.15,0,0,1-1.16-8.35c0-.18-1.14-.23-1.29-.2-.76.16-.66.13-.73.74-.11.84.71,2.49.9,3.34A43.48,43.48,0,0,1,111,222.74Z" transform="translate(-4.64 -40.04)" fill="#4F46E5"></path><circle cx="128.79" cy="122.33" r="2.01" fill="url(#linear-gradient-11)"></circle><path d="M142.71,171.61a7.8,7.8,0,0,1-3.27.83,34.58,34.58,0,0,1-7.81-.23,6.09,6.09,0,0,0,1.79,1.56,29.48,29.48,0,0,1-3.51.18,7.87,7.87,0,0,0,2.61,2.39l-2,1.31a9.19,9.19,0,0,1,4.5,5.83,27,27,0,0,1,.12-3.11,1.5,1.5,0,0,1,.39-1.05,1.57,1.57,0,0,1,.85-.28c3.07-.4,6.41-1.51,7.84-4.26.46-.89,1.29-3.26.8-4.25C144.41,169.33,143.45,171.18,142.71,171.61Z" transform="translate(-4.64 -40.04)" fill="#4F46E5"></path><ellipse cx="237.87" cy="190.11" rx="58.44" ry="6.21" fill="url(#linear-gradient-12)"></ellipse><path d="M283.13,181.41v.27a66.71,66.71,0,0,1-.84,10.85,50.81,50.81,0,0,1-6.19,17.8l-.48.82a44.55,44.55,0,0,1-6.35,8.1c-9.94,10-24.3,14.87-39.75,14.87-14,0-26.24-3.93-35.18-12.1a41.19,41.19,0,0,1-6.27-7.23,48.67,48.67,0,0,1-6.95-16,71.38,71.38,0,0,1-1.94-17.15c0-.78,0-1.55,0-2.33q.08-3.12.39-6.35a113.16,113.16,0,0,1,2.14-13.59c4.77-22,15.85-44.43,30-55.85,6-4.84,12.54-7.69,19.39-7.69C259.79,95.87,283,145.65,283.13,181.41Z" transform="translate(-4.64 -40.04)" fill="#4F46E5"></path><path d="M283.13,181.41v.27a66.71,66.71,0,0,1-.84,10.85c-.17,1.07-.37,2.12-.59,3.14a52.19,52.19,0,0,1-1.92,6.73,46.9,46.9,0,0,1-3.69,7.93c-.15.28-.31.56-.48.82s-.44.71-.66,1a43.84,43.84,0,0,1-3.59,4.78c-.67.78-1.37,1.54-2.09,2.27a46.05,46.05,0,0,1-10,7.63,53.92,53.92,0,0,1-14.2,5.5,67.32,67.32,0,0,1-15.5,1.75c-1,0-2,0-3-.06a64.24,64.24,0,0,1-7.73-.77c-9.54-1.54-17.93-5.27-24.5-11.28a40.83,40.83,0,0,1-6.27-7.23,48.5,48.5,0,0,1-6.95-15.95,71.47,71.47,0,0,1-1.94-17.16c0-.77,0-1.55,0-2.33.06-2.08.19-4.2.4-6.34a112.85,112.85,0,0,1,2.14-13.59,129.62,129.62,0,0,1,9.3-27.49c5.48-11.64,12.59-21.82,20.72-28.37l.8-.62A31.82,31.82,0,0,1,228.31,96a24.5,24.5,0,0,1,2.85-.17,26.28,26.28,0,0,1,9.28,1.74,33.1,33.1,0,0,1,5.75,2.86,43.6,43.6,0,0,1,6.32,4.74,60.79,60.79,0,0,1,5.35,5.5,78.16,78.16,0,0,1,6.19,8.25c1.13,1.71,2.22,3.5,3.26,5.34,1.58,2.76,3.06,5.65,4.43,8.64a128.17,128.17,0,0,1,10.74,37.89h0c.12,1,.22,2,.3,3Q283.11,177.72,283.13,181.41Z" transform="translate(-4.64 -40.04)" fill="url(#linear-gradient-13)"></path><path d="M283.13,181.67c0,11.92-2.76,21.72-7.52,29.48-9.45,6.94-21.57,10.3-34.46,10.3-28.71,0-50.34-16.67-50.34-52.45,0-21.28,8.24-47.61,21-65.45,6-4.83,12.54-7.68,19.38-7.68C259.86,95.87,283.13,145.9,283.13,181.67Z" transform="translate(-4.64 -40.04)" fill="#4F46E5"></path><path d="M283.13,181.67c0,11.92-2.76,21.72-7.52,29.48-9.45,6.94-21.57,10.3-34.46,10.3-28.71,0-50.34-16.67-50.34-52.45,0-21.28,8.24-47.61,21-65.45,6-4.83,12.54-7.68,19.38-7.68C259.86,95.87,283.13,145.9,283.13,181.67Z" transform="translate(-4.64 -40.04)" fill="url(#linear-gradient-14)"></path><g opacity="0.52"><path d="M275,212.2a43.84,43.84,0,0,1-3.59,4.78,107.84,107.84,0,0,0-8.9-25.62c-5.87-12.15-13.38-23.41-20.75-34.72-4.24-6.51-8.53-13.3-9.74-21-1.1-7,.5-14.23,3.62-20.57A54.13,54.13,0,0,1,245,101.73c.42-.44.82-.87,1.23-1.26a43.6,43.6,0,0,1,6.32,4.74c-5,6.35-9.57,13.29-11.1,21.21-1.62,8.42.34,17.18,3.69,25.07s8.07,15.11,12.28,22.58a293.6,293.6,0,0,1,16.48,35.32C274.23,210.32,274.6,211.26,275,212.2Z" transform="translate(-4.64 -40.04)" fill="#fff"></path><path d="M281.7,195.67a52.19,52.19,0,0,1-1.92,6.73L255.15,159c-3.48-6.14-7.07-12.66-6.91-19.71.11-4.8,1.95-9.37,3.77-13.81,1.25-3,3.13-11.37,5.85-14.74a78.16,78.16,0,0,1,6.19,8.25c-.88,1.93-2,3.77-3,5.66a33.07,33.07,0,0,0-3.36,18.24c1.11,10.58,7.18,19.87,12.42,29.12a217.12,217.12,0,0,1,10.68,21.5Q281.27,194.56,281.7,195.67Z" transform="translate(-4.64 -40.04)" fill="#fff"></path><path d="M282.78,173.86a196.66,196.66,0,0,1-15.1-21.3,20.59,20.59,0,0,1-2.85-6.17,18.88,18.88,0,0,1-.1-6c.3-2.84.88-11,2.58-16,1.58,2.76,3.06,5.65,4.43,8.64a14.43,14.43,0,0,0-1.07,2.45,15.77,15.77,0,0,0-.28,6.42,50.65,50.65,0,0,0,4.36,15.54,101.28,101.28,0,0,0,5.87,10.46l1.86,3h0C282.6,171.85,282.7,172.86,282.78,173.86Z" transform="translate(-4.64 -40.04)" fill="#fff"></path><path d="M259.22,226.88a53.92,53.92,0,0,1-14.2,5.5,127.43,127.43,0,0,0-12.92-40c-5-9.65-11.24-18.63-16.17-28.32s-8.58-20.4-7.87-31.25c.69-10.3,5.31-20.07,11.72-28.18A51.42,51.42,0,0,1,228.31,96a24.5,24.5,0,0,1,2.85-.17,26.28,26.28,0,0,1,9.28,1.74c-1.58,4.25-8.36,9.66-10,11.55a37.56,37.56,0,0,0-8.67,19.9c-1.32,11.42,2.69,22.83,8.18,32.93s12.49,19.31,17.91,29.44A108.88,108.88,0,0,1,258.32,220,35,35,0,0,1,259.22,226.88Z" transform="translate(-4.64 -40.04)" fill="#fff"></path><path d="M226.57,234.07a64.24,64.24,0,0,1-7.73-.77c-1.05-16.88-12-31.33-19-46.76a106.28,106.28,0,0,1-8.82-54.61c5.48-11.64,12.59-21.82,20.72-28.37l.8-.62c-1.07,5.77-4.23,14.43-4.78,16.55-3.11,11.81-6.24,23.9-5.26,36.08,1.5,18.52,12.21,34.78,20.27,51.52,2.34,4.86,4.5,9.91,5.19,15.26A22.57,22.57,0,0,1,226.57,234.07Z" transform="translate(-4.64 -40.04)" fill="#fff"></path></g></svg>